<?xml version="1.0" encoding="UTF-8"?>
<svg xmlns="http://www.w3.org/2000/svg" version="1.1" width="300" height="300" viewBox="0 0 300 300"><rect x="0" y="0" width="300" height="300" fill="#fefefe"/><g transform="scale(6.667)"><g transform="translate(4.000,4.000)"><path fill-rule="evenodd" d="M9 0L9 1L8 1L8 2L9 2L9 3L8 3L8 4L10 4L10 7L11 7L11 4L12 4L12 5L13 5L13 6L12 6L12 9L13 9L13 8L14 8L14 9L15 9L15 10L17 10L17 9L18 9L18 8L19 8L19 5L20 5L20 8L22 8L22 9L19 9L19 10L18 10L18 12L17 12L17 11L16 11L16 12L17 12L17 14L16 14L16 13L12 13L12 11L13 11L13 10L10 10L10 9L11 9L11 8L6 8L6 9L5 9L5 8L0 8L0 12L1 12L1 13L0 13L0 14L1 14L1 15L0 15L0 17L2 17L2 20L1 20L1 21L2 21L2 22L0 22L0 24L1 24L1 23L2 23L2 22L3 22L3 21L2 21L2 20L3 20L3 18L4 18L4 17L5 17L5 19L4 19L4 21L5 21L5 22L4 22L4 23L3 23L3 24L2 24L2 27L3 27L3 28L6 28L6 29L8 29L8 31L9 31L9 30L11 30L11 29L12 29L12 30L13 30L13 31L12 31L12 33L13 33L13 32L14 32L14 33L15 33L15 32L16 32L16 31L18 31L18 32L17 32L17 33L16 33L16 34L15 34L15 35L14 35L14 36L15 36L15 35L16 35L16 37L17 37L17 33L18 33L18 32L19 32L19 31L18 31L18 30L20 30L20 32L22 32L22 33L19 33L19 34L21 34L21 35L20 35L20 37L21 37L21 36L22 36L22 37L28 37L28 36L30 36L30 37L31 37L31 35L32 35L32 34L33 34L33 35L34 35L34 34L35 34L35 35L36 35L36 36L32 36L32 37L37 37L37 32L36 32L36 31L37 31L37 30L35 30L35 32L33 32L33 30L34 30L34 29L35 29L35 28L33 28L33 26L34 26L34 27L36 27L36 28L37 28L37 26L36 26L36 25L37 25L37 22L36 22L36 21L37 21L37 18L36 18L36 17L37 17L37 14L36 14L36 13L35 13L35 12L34 12L34 11L35 11L35 9L36 9L36 8L35 8L35 9L34 9L34 8L33 8L33 9L34 9L34 11L33 11L33 12L29 12L29 10L30 10L30 11L31 11L31 10L32 10L32 8L31 8L31 10L30 10L30 8L29 8L29 6L28 6L28 5L29 5L29 4L28 4L28 5L27 5L27 3L25 3L25 2L23 2L23 1L24 1L24 0L19 0L19 1L18 1L18 3L17 3L17 2L16 2L16 4L12 4L12 2L13 2L13 1L11 1L11 2L10 2L10 0ZM15 0L15 1L17 1L17 0ZM26 0L26 2L28 2L28 3L29 3L29 0L28 0L28 1L27 1L27 0ZM19 1L19 2L21 2L21 1ZM14 2L14 3L15 3L15 2ZM22 2L22 3L20 3L20 5L21 5L21 4L22 4L22 3L23 3L23 4L24 4L24 5L23 5L23 7L24 7L24 8L26 8L26 6L27 6L27 7L28 7L28 6L27 6L27 5L25 5L25 3L23 3L23 2ZM10 3L10 4L11 4L11 3ZM18 3L18 4L19 4L19 3ZM16 4L16 5L17 5L17 7L16 7L16 6L15 6L15 7L14 7L14 6L13 6L13 7L14 7L14 8L15 8L15 7L16 7L16 9L17 9L17 8L18 8L18 5L17 5L17 4ZM8 5L8 7L9 7L9 5ZM21 6L21 7L22 7L22 6ZM24 6L24 7L25 7L25 6ZM1 9L1 12L2 12L2 14L3 14L3 12L4 12L4 11L2 11L2 9ZM3 9L3 10L5 10L5 9ZM6 9L6 10L7 10L7 11L5 11L5 12L7 12L7 13L6 13L6 14L8 14L8 15L5 15L5 14L4 14L4 15L3 15L3 16L2 16L2 17L3 17L3 16L4 16L4 15L5 15L5 17L6 17L6 18L7 18L7 17L11 17L11 18L10 18L10 19L9 19L9 20L8 20L8 19L5 19L5 21L6 21L6 22L5 22L5 25L6 25L6 26L5 26L5 27L6 27L6 28L8 28L8 29L9 29L9 28L10 28L10 29L11 29L11 26L13 26L13 27L12 27L12 29L15 29L15 30L16 30L16 29L17 29L17 28L18 28L18 29L19 29L19 27L22 27L22 25L21 25L21 24L20 24L20 23L21 23L21 22L19 22L19 21L22 21L22 20L26 20L26 22L28 22L28 24L29 24L29 22L31 22L31 21L29 21L29 22L28 22L28 21L27 21L27 20L26 20L26 19L27 19L27 18L28 18L28 20L31 20L31 19L32 19L32 20L36 20L36 19L35 19L35 18L34 18L34 17L32 17L32 16L31 16L31 13L29 13L29 12L28 12L28 11L27 11L27 10L28 10L28 9L27 9L27 10L26 10L26 9L25 9L25 10L23 10L23 9L22 9L22 10L23 10L23 11L22 11L22 12L21 12L21 11L20 11L20 10L19 10L19 11L20 11L20 12L19 12L19 13L18 13L18 15L16 15L16 16L15 16L15 15L14 15L14 16L13 16L13 17L12 17L12 15L13 15L13 14L12 14L12 13L11 13L11 12L10 12L10 11L8 11L8 10L7 10L7 9ZM36 10L36 11L37 11L37 10ZM7 11L7 12L8 12L8 11ZM14 11L14 12L15 12L15 11ZM23 11L23 12L22 12L22 13L19 13L19 14L21 14L21 15L19 15L19 17L18 17L18 16L16 16L16 17L18 17L18 18L20 18L20 19L21 19L21 20L22 20L22 19L23 19L23 18L24 18L24 19L26 19L26 18L27 18L27 17L28 17L28 18L29 18L29 17L31 17L31 16L30 16L30 14L29 14L29 13L28 13L28 14L26 14L26 16L24 16L24 17L23 17L23 14L24 14L24 13L23 13L23 12L25 12L25 13L27 13L27 12L25 12L25 11ZM9 13L9 14L10 14L10 16L11 16L11 13ZM22 13L22 14L23 14L23 13ZM32 13L32 14L33 14L33 16L35 16L35 17L36 17L36 14L35 14L35 15L34 15L34 13ZM28 14L28 15L27 15L27 16L29 16L29 14ZM6 16L6 17L7 17L7 16ZM14 16L14 17L15 17L15 16ZM20 16L20 17L21 17L21 19L22 19L22 18L23 18L23 17L22 17L22 16ZM24 17L24 18L26 18L26 17ZM11 18L11 19L10 19L10 20L9 20L9 21L8 21L8 23L9 23L9 21L10 21L10 22L11 22L11 21L12 21L12 22L13 22L13 23L12 23L12 25L13 25L13 24L14 24L14 25L15 25L15 24L16 24L16 25L18 25L18 26L21 26L21 25L18 25L18 24L19 24L19 23L18 23L18 22L15 22L15 21L18 21L18 20L16 20L16 19L17 19L17 18L15 18L15 19L14 19L14 20L15 20L15 21L12 21L12 19L13 19L13 18ZM33 18L33 19L34 19L34 18ZM6 20L6 21L7 21L7 20ZM10 20L10 21L11 21L11 20ZM24 21L24 22L23 22L23 23L22 23L22 24L24 24L24 23L25 23L25 25L24 25L24 26L23 26L23 27L24 27L24 28L23 28L23 29L22 29L22 28L20 28L20 29L22 29L22 31L24 31L24 33L23 33L23 35L22 35L22 36L26 36L26 34L27 34L27 35L29 35L29 33L26 33L26 34L25 34L25 32L27 32L27 31L28 31L28 29L27 29L27 31L26 31L26 29L24 29L24 28L29 28L29 27L30 27L30 28L31 28L31 27L30 27L30 26L31 26L31 25L26 25L26 23L25 23L25 21ZM32 21L32 22L33 22L33 23L31 23L31 24L36 24L36 23L34 23L34 21ZM6 22L6 23L7 23L7 22ZM10 23L10 24L11 24L11 23ZM14 23L14 24L15 24L15 23ZM17 23L17 24L18 24L18 23ZM6 24L6 25L7 25L7 26L6 26L6 27L7 27L7 26L8 26L8 24ZM0 25L0 29L1 29L1 25ZM3 25L3 26L4 26L4 25ZM10 25L10 26L11 26L11 25ZM25 25L25 26L24 26L24 27L25 27L25 26L26 26L26 25ZM32 25L32 26L33 26L33 25ZM34 25L34 26L35 26L35 25ZM15 26L15 27L14 27L14 28L15 28L15 29L16 29L16 28L17 28L17 27L16 27L16 26ZM27 26L27 27L28 27L28 26ZM8 27L8 28L9 28L9 27ZM23 29L23 30L24 30L24 29ZM29 29L29 32L32 32L32 29ZM30 30L30 31L31 31L31 30ZM10 31L10 32L8 32L8 37L12 37L12 35L13 35L13 34L10 34L10 33L11 33L11 31ZM14 31L14 32L15 32L15 31ZM35 32L35 33L36 33L36 32ZM31 33L31 34L30 34L30 35L31 35L31 34L32 34L32 33ZM33 33L33 34L34 34L34 33ZM24 34L24 35L25 35L25 34ZM18 35L18 36L19 36L19 35ZM0 0L0 7L7 7L7 0ZM1 1L1 6L6 6L6 1ZM2 2L2 5L5 5L5 2ZM37 0L30 0L30 7L37 7ZM36 1L31 1L31 6L36 6ZM35 2L32 2L32 5L35 5ZM0 37L7 37L7 30L0 30ZM1 36L6 36L6 31L1 31ZM2 35L5 35L5 32L2 32Z" fill="#000000"/></g></g></svg>
