<?xml version="1.0" encoding="UTF-8"?>
<svg xmlns="http://www.w3.org/2000/svg" version="1.1" width="300" height="300" viewBox="0 0 300 300"><rect x="0" y="0" width="300" height="300" fill="#fefefe"/><g transform="scale(6.667)"><g transform="translate(4.000,4.000)"><path fill-rule="evenodd" d="M8 0L8 1L9 1L9 2L8 2L8 5L9 5L9 4L11 4L11 5L10 5L10 9L9 9L9 8L8 8L8 9L9 9L9 10L8 10L8 12L9 12L9 13L11 13L11 16L12 16L12 17L13 17L13 16L12 16L12 14L13 14L13 15L14 15L14 18L13 18L13 21L16 21L16 23L15 23L15 22L14 22L14 23L10 23L10 25L9 25L9 22L11 22L11 20L12 20L12 19L10 19L10 17L9 17L9 20L6 20L6 19L7 19L7 18L8 18L8 17L7 17L7 16L10 16L10 14L9 14L9 15L7 15L7 14L8 14L8 13L7 13L7 12L6 12L6 11L7 11L7 10L6 10L6 9L7 9L7 8L6 8L6 9L4 9L4 8L0 8L0 11L3 11L3 10L2 10L2 9L4 9L4 12L3 12L3 13L4 13L4 12L5 12L5 14L6 14L6 15L7 15L7 16L5 16L5 15L4 15L4 16L5 16L5 17L7 17L7 18L6 18L6 19L5 19L5 18L4 18L4 17L2 17L2 15L0 15L0 16L1 16L1 18L0 18L0 19L1 19L1 20L0 20L0 22L1 22L1 24L0 24L0 25L2 25L2 26L1 26L1 27L0 27L0 28L1 28L1 27L2 27L2 26L3 26L3 27L4 27L4 28L3 28L3 29L8 29L8 30L10 30L10 31L12 31L12 32L9 32L9 33L8 33L8 37L11 37L11 35L14 35L14 34L15 34L15 33L16 33L16 35L17 35L17 33L19 33L19 34L18 34L18 35L19 35L19 34L22 34L22 36L21 36L21 35L20 35L20 36L19 36L19 37L25 37L25 36L26 36L26 37L27 37L27 35L28 35L28 34L27 34L27 35L26 35L26 33L25 33L25 31L26 31L26 30L27 30L27 29L26 29L26 28L27 28L27 26L29 26L29 28L28 28L28 31L27 31L27 32L28 32L28 33L29 33L29 35L30 35L30 36L31 36L31 37L37 37L37 36L35 36L35 35L34 35L34 34L33 34L33 33L34 33L34 32L33 32L33 31L35 31L35 34L37 34L37 33L36 33L36 32L37 32L37 27L36 27L36 26L37 26L37 24L35 24L35 23L34 23L34 24L31 24L31 23L30 23L30 19L31 19L31 21L33 21L33 22L32 22L32 23L33 23L33 22L34 22L34 20L32 20L32 19L33 19L33 18L32 18L32 16L31 16L31 18L30 18L30 17L29 17L29 16L30 16L30 15L31 15L31 13L32 13L32 14L33 14L33 17L34 17L34 18L35 18L35 22L36 22L36 19L37 19L37 17L36 17L36 16L37 16L37 15L36 15L36 16L34 16L34 14L35 14L35 11L36 11L36 12L37 12L37 11L36 11L36 10L35 10L35 8L32 8L32 9L34 9L34 10L33 10L33 11L34 11L34 12L31 12L31 11L30 11L30 13L29 13L29 11L28 11L28 12L27 12L27 11L26 11L26 9L27 9L27 5L28 5L28 7L29 7L29 2L26 2L26 0L25 0L25 1L24 1L24 0L18 0L18 1L20 1L20 3L19 3L19 2L18 2L18 3L17 3L17 2L16 2L16 3L14 3L14 5L13 5L13 3L12 3L12 4L11 4L11 2L14 2L14 0L12 0L12 1L11 1L11 0L10 0L10 1L9 1L9 0ZM15 0L15 1L16 1L16 0ZM28 0L28 1L29 1L29 0ZM22 1L22 2L21 2L21 3L20 3L20 5L21 5L21 4L22 4L22 6L21 6L21 8L20 8L20 6L19 6L19 8L18 8L18 9L19 9L19 8L20 8L20 9L21 9L21 8L22 8L22 9L23 9L23 8L22 8L22 6L23 6L23 7L24 7L24 6L25 6L25 8L24 8L24 10L25 10L25 9L26 9L26 6L25 6L25 5L27 5L27 4L25 4L25 5L24 5L24 2L23 2L23 1ZM18 3L18 5L17 5L17 4L16 4L16 5L14 5L14 6L13 6L13 5L12 5L12 6L11 6L11 8L12 8L12 6L13 6L13 8L14 8L14 9L15 9L15 10L14 10L14 11L11 11L11 10L12 10L12 9L11 9L11 10L9 10L9 11L10 11L10 12L11 12L11 13L12 13L12 12L13 12L13 14L14 14L14 15L16 15L16 14L17 14L17 16L15 16L15 17L16 17L16 18L17 18L17 19L15 19L15 20L17 20L17 19L18 19L18 20L20 20L20 21L21 21L21 20L22 20L22 22L21 22L21 25L20 25L20 24L19 24L19 23L20 23L20 22L19 22L19 21L17 21L17 22L18 22L18 23L16 23L16 24L12 24L12 26L11 26L11 25L10 25L10 26L11 26L11 27L10 27L10 28L9 28L9 27L8 27L8 26L7 26L7 25L6 25L6 26L4 26L4 25L5 25L5 24L7 24L7 23L6 23L6 22L8 22L8 21L6 21L6 22L4 22L4 21L2 21L2 20L5 20L5 19L3 19L3 18L1 18L1 19L2 19L2 20L1 20L1 21L2 21L2 22L4 22L4 23L5 23L5 24L3 24L3 23L2 23L2 25L3 25L3 26L4 26L4 27L5 27L5 28L8 28L8 29L10 29L10 28L12 28L12 29L11 29L11 30L12 30L12 29L14 29L14 30L13 30L13 32L14 32L14 33L15 33L15 29L16 29L16 31L19 31L19 32L20 32L20 33L21 33L21 32L22 32L22 33L24 33L24 35L23 35L23 36L25 36L25 33L24 33L24 32L23 32L23 31L24 31L24 30L23 30L23 31L22 31L22 30L21 30L21 32L20 32L20 29L21 29L21 28L20 28L20 27L23 27L23 29L25 29L25 28L26 28L26 27L24 27L24 25L22 25L22 22L24 22L24 23L23 23L23 24L24 24L24 23L26 23L26 24L30 24L30 23L29 23L29 21L28 21L28 19L27 19L27 18L26 18L26 17L28 17L28 16L29 16L29 15L28 15L28 14L29 14L29 13L28 13L28 14L27 14L27 13L25 13L25 14L24 14L24 13L23 13L23 14L22 14L22 12L25 12L25 11L23 11L23 10L22 10L22 11L21 11L21 12L19 12L19 11L20 11L20 10L19 10L19 11L18 11L18 10L17 10L17 7L18 7L18 5L19 5L19 3ZM16 5L16 7L15 7L15 6L14 6L14 7L15 7L15 8L16 8L16 7L17 7L17 5ZM8 6L8 7L9 7L9 6ZM29 8L29 9L28 9L28 10L30 10L30 8ZM36 8L36 9L37 9L37 8ZM16 10L16 11L17 11L17 10ZM14 12L14 14L16 14L16 13L17 13L17 14L19 14L19 15L18 15L18 17L17 17L17 18L18 18L18 19L19 19L19 18L18 18L18 17L20 17L20 19L22 19L22 20L23 20L23 21L25 21L25 19L24 19L24 20L23 20L23 18L25 18L25 17L26 17L26 16L25 16L25 17L24 17L24 15L23 15L23 16L22 16L22 15L20 15L20 13L18 13L18 12L16 12L16 13L15 13L15 12ZM0 13L0 14L1 14L1 13ZM6 13L6 14L7 14L7 13ZM36 13L36 14L37 14L37 13ZM25 14L25 15L27 15L27 14ZM21 17L21 18L23 18L23 17ZM29 18L29 19L30 19L30 18ZM31 18L31 19L32 19L32 18ZM9 20L9 21L10 21L10 20ZM26 20L26 23L27 23L27 20ZM16 24L16 27L15 27L15 26L14 26L14 25L13 25L13 26L12 26L12 28L14 28L14 27L15 27L15 28L16 28L16 29L17 29L17 27L20 27L20 25L19 25L19 24ZM17 25L17 26L18 26L18 25ZM25 25L25 26L26 26L26 25ZM31 25L31 26L32 26L32 27L30 27L30 28L32 28L32 27L34 27L34 28L36 28L36 27L35 27L35 26L36 26L36 25L35 25L35 26L32 26L32 25ZM6 26L6 27L7 27L7 26ZM13 26L13 27L14 27L14 26ZM18 28L18 29L19 29L19 28ZM29 29L29 32L32 32L32 29ZM35 29L35 30L36 30L36 29ZM30 30L30 31L31 31L31 30ZM10 33L10 34L9 34L9 35L11 35L11 34L12 34L12 33ZM31 34L31 35L32 35L32 34ZM33 35L33 36L34 36L34 35ZM12 36L12 37L13 37L13 36ZM14 36L14 37L16 37L16 36ZM17 36L17 37L18 37L18 36ZM0 0L0 7L7 7L7 0ZM1 1L1 6L6 6L6 1ZM2 2L2 5L5 5L5 2ZM37 0L30 0L30 7L37 7ZM36 1L31 1L31 6L36 6ZM35 2L32 2L32 5L35 5ZM0 37L7 37L7 30L0 30ZM1 36L6 36L6 31L1 31ZM2 35L5 35L5 32L2 32Z" fill="#000000"/></g></g></svg>
