<?xml version="1.0" encoding="UTF-8"?>
<svg xmlns="http://www.w3.org/2000/svg" version="1.1" width="300" height="300" viewBox="0 0 300 300"><rect x="0" y="0" width="300" height="300" fill="#fefefe"/><g transform="scale(6.667)"><g transform="translate(4.000,4.000)"><path fill-rule="evenodd" d="M10 0L10 2L11 2L11 0ZM12 0L12 1L13 1L13 2L12 2L12 4L13 4L13 3L14 3L14 4L18 4L18 5L20 5L20 7L21 7L21 8L22 8L22 9L19 9L19 8L15 8L15 6L16 6L16 7L17 7L17 6L16 6L16 5L15 5L15 6L14 6L14 8L15 8L15 9L12 9L12 7L13 7L13 5L11 5L11 6L10 6L10 4L11 4L11 3L8 3L8 4L9 4L9 5L8 5L8 7L9 7L9 8L6 8L6 9L5 9L5 8L0 8L0 10L1 10L1 11L0 11L0 12L1 12L1 11L2 11L2 12L3 12L3 13L2 13L2 15L1 15L1 16L2 16L2 15L3 15L3 16L4 16L4 18L3 18L3 20L5 20L5 21L9 21L9 20L6 20L6 19L10 19L10 20L11 20L11 17L12 17L12 18L13 18L13 19L12 19L12 21L13 21L13 20L14 20L14 21L15 21L15 20L16 20L16 19L17 19L17 18L18 18L18 20L17 20L17 21L16 21L16 22L15 22L15 23L14 23L14 24L15 24L15 23L16 23L16 25L12 25L12 23L13 23L13 22L8 22L8 23L7 23L7 22L5 22L5 25L7 25L7 26L6 26L6 27L5 27L5 26L4 26L4 25L0 25L0 29L1 29L1 26L2 26L2 29L5 29L5 28L6 28L6 29L7 29L7 28L8 28L8 27L9 27L9 26L8 26L8 25L12 25L12 26L13 26L13 27L12 27L12 29L13 29L13 28L14 28L14 29L16 29L16 30L15 30L15 31L14 31L14 32L15 32L15 31L16 31L16 32L17 32L17 33L16 33L16 34L15 34L15 33L12 33L12 31L13 31L13 30L11 30L11 31L9 31L9 29L10 29L10 28L9 28L9 29L8 29L8 31L9 31L9 32L8 32L8 37L10 37L10 36L11 36L11 33L12 33L12 34L13 34L13 35L12 35L12 37L13 37L13 36L14 36L14 37L16 37L16 36L17 36L17 37L18 37L18 36L19 36L19 37L25 37L25 35L26 35L26 37L27 37L27 36L29 36L29 35L27 35L27 34L26 34L26 32L27 32L27 33L29 33L29 34L33 34L33 32L34 32L34 33L35 33L35 35L36 35L36 36L34 36L34 35L32 35L32 36L31 36L31 37L37 37L37 32L34 32L34 31L37 31L37 30L33 30L33 28L34 28L34 29L35 29L35 28L34 28L34 27L36 27L36 28L37 28L37 26L36 26L36 25L37 25L37 22L36 22L36 21L37 21L37 18L36 18L36 17L37 17L37 14L36 14L36 13L35 13L35 12L34 12L34 11L35 11L35 9L36 9L36 8L35 8L35 9L34 9L34 8L33 8L33 9L34 9L34 11L33 11L33 10L32 10L32 11L31 11L31 10L30 10L30 8L28 8L28 7L29 7L29 6L28 6L28 5L29 5L29 3L27 3L27 2L28 2L28 1L29 1L29 0L28 0L28 1L26 1L26 0L25 0L25 2L26 2L26 3L24 3L24 4L23 4L23 5L22 5L22 7L21 7L21 4L20 4L20 3L23 3L23 2L19 2L19 1L24 1L24 0L18 0L18 1L17 1L17 2L19 2L19 4L18 4L18 3L14 3L14 2L16 2L16 0L15 0L15 1L14 1L14 0ZM8 1L8 2L9 2L9 1ZM24 4L24 5L23 5L23 8L27 8L27 7L28 7L28 6L27 6L27 7L26 7L26 4ZM27 4L27 5L28 5L28 4ZM24 5L24 7L25 7L25 5ZM9 6L9 7L10 7L10 6ZM11 6L11 7L12 7L12 6ZM18 6L18 7L19 7L19 6ZM10 8L10 9L11 9L11 11L9 11L9 9L8 9L8 11L6 11L6 10L7 10L7 9L6 9L6 10L5 10L5 11L4 11L4 12L5 12L5 11L6 11L6 12L8 12L8 11L9 11L9 13L6 13L6 14L7 14L7 15L6 15L6 16L5 16L5 13L3 13L3 15L4 15L4 16L5 16L5 17L6 17L6 18L5 18L5 19L6 19L6 18L8 18L8 16L10 16L10 17L11 17L11 14L13 14L13 15L12 15L12 17L15 17L15 18L16 18L16 17L17 17L17 16L18 16L18 17L19 17L19 16L18 16L18 14L19 14L19 15L21 15L21 14L19 14L19 13L22 13L22 12L20 12L20 11L23 11L23 12L24 12L24 11L25 11L25 12L26 12L26 11L25 11L25 9L24 9L24 10L18 10L18 11L17 11L17 12L18 12L18 13L16 13L16 12L15 12L15 11L14 11L14 12L13 12L13 13L12 13L12 11L13 11L13 10L12 10L12 9L11 9L11 8ZM31 8L31 9L32 9L32 8ZM1 9L1 10L2 10L2 9ZM3 9L3 10L4 10L4 9ZM15 9L15 10L17 10L17 9ZM26 9L26 10L28 10L28 12L29 12L29 13L27 13L27 14L28 14L28 15L26 15L26 13L24 13L24 14L23 14L23 15L22 15L22 16L20 16L20 17L22 17L22 16L23 16L23 17L24 17L24 18L23 18L23 19L24 19L24 21L22 21L22 20L20 20L20 18L19 18L19 20L18 20L18 21L17 21L17 24L18 24L18 22L19 22L19 25L18 25L18 27L17 27L17 26L16 26L16 27L17 27L17 28L18 28L18 29L17 29L17 30L16 30L16 31L17 31L17 32L18 32L18 33L17 33L17 34L18 34L18 35L17 35L17 36L18 36L18 35L20 35L20 34L19 34L19 33L22 33L22 32L23 32L23 33L24 33L24 34L23 34L23 35L22 35L22 36L24 36L24 34L25 34L25 32L26 32L26 31L27 31L27 32L28 32L28 30L26 30L26 29L24 29L24 30L23 30L23 29L22 29L22 28L21 28L21 31L20 31L20 30L18 30L18 29L20 29L20 27L21 27L21 26L19 26L19 25L20 25L20 23L21 23L21 22L19 22L19 21L22 21L22 22L23 22L23 23L22 23L22 24L21 24L21 25L22 25L22 26L23 26L23 28L26 28L26 26L28 26L28 25L24 25L24 26L23 26L23 25L22 25L22 24L27 24L27 22L28 22L28 23L29 23L29 24L31 24L31 23L32 23L32 24L33 24L33 21L34 21L34 24L36 24L36 23L35 23L35 21L34 21L34 20L36 20L36 19L35 19L35 17L36 17L36 14L35 14L35 15L34 15L34 13L30 13L30 12L31 12L31 11L29 11L29 10L28 10L28 9ZM36 10L36 11L37 11L37 10ZM18 11L18 12L19 12L19 11ZM32 11L32 12L33 12L33 11ZM14 12L14 13L15 13L15 12ZM0 13L0 14L1 14L1 13ZM9 13L9 14L8 14L8 15L9 15L9 14L10 14L10 13ZM15 14L15 15L14 15L14 16L15 16L15 17L16 17L16 16L17 16L17 15L16 15L16 14ZM24 14L24 15L23 15L23 16L24 16L24 17L25 17L25 18L27 18L27 19L26 19L26 20L25 20L25 21L26 21L26 22L27 22L27 21L28 21L28 20L29 20L29 22L30 22L30 23L31 23L31 22L30 22L30 21L31 21L31 20L32 20L32 21L33 21L33 20L34 20L34 19L33 19L33 18L34 18L34 17L35 17L35 16L34 16L34 15L33 15L33 16L30 16L30 14L29 14L29 16L24 16L24 15L25 15L25 14ZM31 14L31 15L32 15L32 14ZM6 16L6 17L7 17L7 16ZM33 16L33 17L31 17L31 19L32 19L32 18L33 18L33 17L34 17L34 16ZM0 17L0 21L1 21L1 24L4 24L4 23L2 23L2 21L1 21L1 19L2 19L2 17ZM27 17L27 18L29 18L29 20L30 20L30 18L29 18L29 17ZM14 19L14 20L15 20L15 19ZM24 22L24 23L25 23L25 22ZM6 23L6 24L7 24L7 23ZM8 23L8 24L10 24L10 23ZM29 25L29 26L30 26L30 28L32 28L32 27L33 27L33 26L34 26L34 25ZM10 26L10 27L11 27L11 26ZM6 27L6 28L7 28L7 27ZM14 27L14 28L15 28L15 27ZM27 27L27 28L29 28L29 27ZM29 29L29 32L32 32L32 29ZM22 30L22 31L21 31L21 32L22 32L22 31L23 31L23 30ZM24 30L24 31L26 31L26 30ZM30 30L30 31L31 31L31 30ZM10 32L10 33L9 33L9 34L10 34L10 33L11 33L11 32ZM9 35L9 36L10 36L10 35ZM14 35L14 36L15 36L15 35ZM0 0L0 7L7 7L7 0ZM1 1L1 6L6 6L6 1ZM2 2L2 5L5 5L5 2ZM37 0L30 0L30 7L37 7ZM36 1L31 1L31 6L36 6ZM35 2L32 2L32 5L35 5ZM0 37L7 37L7 30L0 30ZM1 36L6 36L6 31L1 31ZM2 35L5 35L5 32L2 32Z" fill="#000000"/></g></g></svg>
