<?xml version="1.0" encoding="UTF-8"?>
<svg xmlns="http://www.w3.org/2000/svg" version="1.1" width="300" height="300" viewBox="0 0 300 300"><rect x="0" y="0" width="300" height="300" fill="#fefefe"/><g transform="scale(6.667)"><g transform="translate(4.000,4.000)"><path fill-rule="evenodd" d="M8 0L8 4L10 4L10 3L11 3L11 4L12 4L12 2L11 2L11 0ZM12 0L12 1L13 1L13 0ZM14 0L14 1L15 1L15 0ZM18 0L18 1L17 1L17 2L15 2L15 3L14 3L14 2L13 2L13 3L14 3L14 4L13 4L13 5L11 5L11 6L10 6L10 7L9 7L9 5L8 5L8 7L9 7L9 8L10 8L10 7L11 7L11 6L12 6L12 8L11 8L11 9L7 9L7 8L4 8L4 9L2 9L2 8L0 8L0 9L2 9L2 10L0 10L0 11L1 11L1 12L0 12L0 13L1 13L1 12L2 12L2 13L3 13L3 15L2 15L2 14L0 14L0 15L1 15L1 16L0 16L0 18L2 18L2 19L3 19L3 20L1 20L1 24L0 24L0 26L2 26L2 28L0 28L0 29L4 29L4 28L3 28L3 26L2 26L2 25L3 25L3 24L4 24L4 23L5 23L5 24L6 24L6 25L4 25L4 27L5 27L5 28L6 28L6 29L7 29L7 28L8 28L8 27L10 27L10 26L8 26L8 25L12 25L12 26L11 26L11 28L10 28L10 29L11 29L11 28L12 28L12 29L13 29L13 30L15 30L15 31L14 31L14 32L13 32L13 31L12 31L12 32L11 32L11 31L10 31L10 30L9 30L9 29L8 29L8 30L9 30L9 31L8 31L8 33L9 33L9 32L10 32L10 34L9 34L9 35L8 35L8 37L9 37L9 35L10 35L10 37L11 37L11 36L12 36L12 37L14 37L14 35L15 35L15 36L16 36L16 34L17 34L17 33L18 33L18 32L19 32L19 33L22 33L22 34L20 34L20 35L19 35L19 34L18 34L18 35L17 35L17 37L18 37L18 35L19 35L19 36L22 36L22 37L26 37L26 36L27 36L27 37L28 37L28 35L29 35L29 36L31 36L31 33L33 33L33 34L34 34L34 35L32 35L32 36L34 36L34 37L37 37L37 36L36 36L36 35L35 35L35 34L37 34L37 31L34 31L34 29L35 29L35 28L36 28L36 27L34 27L34 26L36 26L36 25L37 25L37 24L36 24L36 23L35 23L35 22L36 22L36 21L37 21L37 20L36 20L36 19L35 19L35 18L36 18L36 17L37 17L37 16L36 16L36 13L35 13L35 12L37 12L37 11L36 11L36 10L35 10L35 9L37 9L37 8L33 8L33 9L32 9L32 8L31 8L31 10L32 10L32 11L29 11L29 10L30 10L30 9L29 9L29 6L28 6L28 7L27 7L27 6L26 6L26 4L27 4L27 5L29 5L29 4L28 4L28 3L29 3L29 2L28 2L28 3L27 3L27 2L26 2L26 3L25 3L25 2L23 2L23 3L22 3L22 1L24 1L24 0L22 0L22 1L19 1L19 0ZM26 0L26 1L29 1L29 0ZM9 2L9 3L10 3L10 2ZM15 3L15 4L16 4L16 5L15 5L15 7L16 7L16 5L17 5L17 7L18 7L18 6L19 6L19 8L21 8L21 7L22 7L22 8L23 8L23 7L24 7L24 5L25 5L25 3L24 3L24 5L23 5L23 4L22 4L22 3L20 3L20 4L19 4L19 5L18 5L18 3ZM21 4L21 6L20 6L20 5L19 5L19 6L20 6L20 7L21 7L21 6L22 6L22 7L23 7L23 5L22 5L22 4ZM13 6L13 8L12 8L12 9L11 9L11 10L12 10L12 9L13 9L13 10L15 10L15 9L16 9L16 12L17 12L17 11L18 11L18 13L16 13L16 14L18 14L18 17L19 17L19 18L18 18L18 21L17 21L17 20L16 20L16 21L17 21L17 22L16 22L16 23L15 23L15 22L13 22L13 21L12 21L12 20L13 20L13 19L12 19L12 20L11 20L11 21L10 21L10 20L8 20L8 17L9 17L9 19L10 19L10 17L11 17L11 18L12 18L12 17L13 17L13 18L15 18L15 17L17 17L17 15L16 15L16 16L15 16L15 17L13 17L13 16L14 16L14 15L15 15L15 14L13 14L13 13L12 13L12 12L13 12L13 11L12 11L12 12L11 12L11 16L10 16L10 15L9 15L9 14L8 14L8 10L7 10L7 9L4 9L4 10L7 10L7 11L6 11L6 12L7 12L7 13L4 13L4 12L3 12L3 11L2 11L2 12L3 12L3 13L4 13L4 15L3 15L3 16L1 16L1 17L3 17L3 18L4 18L4 20L3 20L3 21L2 21L2 22L3 22L3 21L6 21L6 22L5 22L5 23L6 23L6 24L7 24L7 25L6 25L6 26L5 26L5 27L6 27L6 28L7 28L7 27L6 27L6 26L7 26L7 25L8 25L8 23L9 23L9 22L8 22L8 23L6 23L6 22L7 22L7 21L10 21L10 24L12 24L12 25L13 25L13 26L16 26L16 25L13 25L13 24L14 24L14 23L15 23L15 24L17 24L17 22L18 22L18 24L20 24L20 25L18 25L18 26L17 26L17 27L16 27L16 28L15 28L15 27L14 27L14 29L16 29L16 28L17 28L17 27L18 27L18 26L19 26L19 28L18 28L18 29L17 29L17 30L18 30L18 29L19 29L19 32L21 32L21 31L23 31L23 29L22 29L22 30L21 30L21 28L20 28L20 27L21 27L21 26L22 26L22 28L23 28L23 25L21 25L21 24L20 24L20 23L21 23L21 22L22 22L22 23L23 23L23 22L24 22L24 23L25 23L25 25L24 25L24 26L25 26L25 29L24 29L24 31L25 31L25 32L23 32L23 33L24 33L24 36L26 36L26 35L25 35L25 34L26 34L26 31L27 31L27 33L28 33L28 34L27 34L27 35L28 35L28 34L29 34L29 33L28 33L28 27L29 27L29 28L30 28L30 26L31 26L31 28L32 28L32 27L33 27L33 26L31 26L31 25L34 25L34 24L33 24L33 22L35 22L35 21L33 21L33 20L32 20L32 21L33 21L33 22L31 22L31 21L30 21L30 23L32 23L32 24L31 24L31 25L29 25L29 26L28 26L28 27L27 27L27 28L26 28L26 26L25 26L25 25L28 25L28 24L29 24L29 23L28 23L28 24L27 24L27 21L28 21L28 22L29 22L29 17L28 17L28 15L26 15L26 14L27 14L27 13L28 13L28 14L29 14L29 16L30 16L30 14L31 14L31 13L34 13L34 12L33 12L33 11L35 11L35 10L33 10L33 11L32 11L32 12L31 12L31 13L30 13L30 12L29 12L29 13L28 13L28 12L26 12L26 11L24 11L24 12L25 12L25 13L24 13L24 15L23 15L23 14L22 14L22 13L19 13L19 12L20 12L20 11L22 11L22 12L23 12L23 11L22 11L22 9L19 9L19 11L18 11L18 10L17 10L17 9L16 9L16 8L15 8L15 9L13 9L13 8L14 8L14 6ZM25 6L25 9L24 9L24 10L26 10L26 9L28 9L28 8L27 8L27 7L26 7L26 6ZM9 10L9 11L10 11L10 10ZM14 11L14 13L15 13L15 11ZM9 12L9 13L10 13L10 12ZM25 13L25 14L26 14L26 13ZM5 14L5 15L8 15L8 16L5 16L5 17L4 17L4 16L3 16L3 17L4 17L4 18L5 18L5 20L6 20L6 21L7 21L7 20L6 20L6 19L7 19L7 18L6 18L6 17L8 17L8 16L9 16L9 15L8 15L8 14ZM21 14L21 15L19 15L19 16L20 16L20 17L22 17L22 18L20 18L20 20L19 20L19 21L24 21L24 20L25 20L25 18L24 18L24 17L25 17L25 15L24 15L24 17L23 17L23 15L22 15L22 14ZM32 14L32 15L31 15L31 17L30 17L30 20L31 20L31 19L32 19L32 18L31 18L31 17L33 17L33 19L34 19L34 18L35 18L35 17L36 17L36 16L35 16L35 17L33 17L33 15L35 15L35 14ZM12 15L12 16L11 16L11 17L12 17L12 16L13 16L13 15ZM27 17L27 19L26 19L26 20L28 20L28 17ZM16 18L16 19L17 19L17 18ZM22 18L22 20L24 20L24 19L23 19L23 18ZM14 19L14 21L15 21L15 19ZM25 21L25 22L26 22L26 21ZM12 23L12 24L13 24L13 23ZM1 24L1 25L2 25L2 24ZM12 27L12 28L13 28L13 27ZM19 28L19 29L20 29L20 28ZM25 29L25 31L26 31L26 29ZM29 29L29 32L32 32L32 29ZM20 30L20 31L21 31L21 30ZM30 30L30 31L31 31L31 30ZM15 31L15 32L16 32L16 33L17 33L17 31ZM12 32L12 33L11 33L11 34L10 34L10 35L11 35L11 34L12 34L12 33L13 33L13 34L15 34L15 33L13 33L13 32ZM34 33L34 34L35 34L35 33ZM22 34L22 35L23 35L23 34ZM12 35L12 36L13 36L13 35ZM0 0L0 7L7 7L7 0ZM1 1L1 6L6 6L6 1ZM2 2L2 5L5 5L5 2ZM37 0L30 0L30 7L37 7ZM36 1L31 1L31 6L36 6ZM35 2L32 2L32 5L35 5ZM0 37L7 37L7 30L0 30ZM1 36L6 36L6 31L1 31ZM2 35L5 35L5 32L2 32Z" fill="#000000"/></g></g></svg>
